<?xml version="1.0" standalone="no"?>

<svg version="1.0" xmlns="http://www.w3.org/2000/svg"
 width="660.000000pt" height="378.000000pt" viewBox="0 0 660.000000 378.000000"
 preserveAspectRatio="xMidYMid meet">

<g transform="translate(0.000000,378.000000) scale(0.100000,-0.100000)"
fill="#000000" stroke="none">
<path d="M3594 2698 c-56 -42 -94 -82 -94 -100 0 -26 7 -23 71 27 32 25 64 45
73 45 9 0 78 -27 153 -60 76 -33 142 -60 146 -60 5 0 7 9 5 21 -2 15 -20 28
-63 46 -33 14 -99 42 -148 64 -48 21 -93 39 -101 39 -7 0 -26 -10 -42 -22z"/>
<path d="M3650 2476 c0 -73 -4 -127 -10 -131 -6 -4 -29 13 -53 36 -48 47 -81
63 -150 74 -27 3 -59 8 -70 11 -12 2 -105 20 -207 39 -102 19 -240 47 -308 61
l-123 26 -37 -22 c-43 -26 -222 -159 -222 -166 0 -8 62 27 135 76 39 25 89 57
112 70 l42 23 63 -46 c35 -26 181 -131 326 -234 145 -103 327 -235 405 -292
150 -110 153 -116 71 -125 -111 -13 -161 -28 -228 -67 -39 -23 -79 -48 -88
-57 -26 -22 -50 -11 -188 80 -69 46 -141 93 -160 105 -31 19 -224 66 -330 80
-19 2 -62 11 -95 18 -78 19 -212 45 -248 50 -37 5 -134 23 -684 130 -72 14
-143 25 -157 25 -25 0 -58 -16 -96 -47 -24 -20 -209 -152 -318 -228 -55 -38
-96 -71 -92 -73 10 -4 7 -5 203 122 81 53 167 106 190 117 23 12 63 37 90 55
26 19 49 34 51 34 2 0 62 -45 132 -100 71 -55 182 -142 248 -193 65 -50 167
-130 227 -177 59 -47 140 -110 179 -140 40 -30 109 -84 154 -120 44 -36 116
-91 159 -123 42 -31 77 -59 77 -61 0 -2 -32 -23 -71 -47 -39 -24 -83 -54 -98
-66 l-26 -22 608 -1 c443 0 614 3 630 12 12 6 60 41 107 77 47 36 123 95 170
130 47 36 90 69 95 74 6 4 89 68 185 142 264 203 395 305 467 362 36 28 89 68
119 88 l53 37 101 -63 c55 -35 172 -110 259 -166 167 -106 201 -127 201 -119
0 2 -66 53 -147 112 -82 59 -173 126 -203 149 -164 124 -150 117 -199 113 -25
-3 -140 -19 -254 -37 l-208 -33 -52 36 c-29 20 -63 44 -77 53 -14 10 -79 58
-144 108 -111 84 -123 90 -175 95 l-56 5 -5 73 -5 74 -135 54 c-74 30 -136 54
-137 54 -2 0 -3 -56 -3 -124z"/>
<path d="M2744 2396 c-37 -20 -107 -64 -197 -125 -21 -14 -45 -30 -54 -36
-107 -67 -116 -74 -97 -80 10 -4 27 -11 38 -17 20 -10 58 12 161 97 28 22 68
54 90 70 22 16 42 32 45 36 3 4 18 13 33 18 37 14 46 9 311 -182 79 -58 99
-59 23 -2 -28 22 -54 42 -57 45 -3 3 -39 31 -80 62 -41 31 -98 75 -125 96
l-51 40 -40 -22z"/>
<path d="M2690 2228 c1 -30 17 -41 46 -31 42 14 37 37 -8 41 -26 2 -38 -1 -38
-10z"/>
<path d="M2792 2223 c2 -13 13 -18 38 -18 25 0 36 5 38 18 3 14 -4 17 -38 17
-34 0 -41 -3 -38 -17z"/>
<path d="M2696 2145 c-9 -25 1 -35 35 -35 26 0 30 3 27 23 -4 28 -52 37 -62
12z"/>
<path d="M2794 2145 c-9 -22 4 -35 37 -35 24 0 29 4 29 25 0 21 -5 25 -30 25
-18 0 -33 -6 -36 -15z"/>
<path d="M1435 2021 c-11 -10 -96 -70 -190 -133 -93 -63 -199 -135 -235 -160
-151 -105 -341 -236 -425 -293 l-90 -60 60 -3 60 -3 165 109 c445 296 581 386
649 431 41 28 79 47 85 44 6 -4 106 -71 223 -150 116 -79 214 -143 218 -143 4
0 -37 34 -91 75 -55 41 -163 125 -240 185 -78 60 -148 112 -155 115 -8 3 -23
-3 -34 -14z"/>
<path d="M4833 1873 c-26 -21 -95 -73 -153 -117 -300 -227 -314 -238 -271
-216 20 10 67 40 211 137 150 100 220 143 234 143 9 0 203 -123 431 -274 227
-151 423 -280 435 -286 11 -6 48 -10 82 -8 l62 3 -94 67 c-165 117 -199 140
-450 308 -135 91 -246 168 -248 172 -2 5 -7 8 -12 8 -5 0 -41 23 -81 50 -40
28 -78 50 -85 50 -7 0 -34 -17 -61 -37z"/>
<path d="M1254 1586 c-3 -7 -4 -40 -2 -72 l3 -59 87 -3 86 -3 4 68 c2 37 2 71
0 76 -2 4 -41 7 -88 7 -62 0 -86 -4 -90 -14z"/>
<path d="M1480 1525 l0 -75 90 0 90 0 0 75 0 75 -90 0 -90 0 0 -75z"/>
<path d="M4747 1514 c-4 -4 -7 -38 -7 -76 l0 -69 93 3 92 3 0 70 0 70 -85 3
c-47 1 -89 0 -93 -4z"/>
<path d="M4976 1510 c-1 -3 -2 -34 -2 -70 l1 -65 93 -3 92 -3 0 71 c0 38 -3
70 -7 70 -62 4 -175 4 -177 0z"/>
<path d="M1257 1404 c-7 -8 -10 -128 -3 -135 2 -2 43 -2 91 1 l87 5 0 65 0 65
-84 3 c-46 1 -87 0 -91 -4z"/>
<path d="M1480 1341 l0 -69 83 -4 c45 -3 85 -3 90 -1 4 2 7 35 7 74 l0 69 -90
0 -90 0 0 -69z"/>
<path d="M4740 1260 l0 -70 95 0 95 0 0 70 0 70 -95 0 -95 0 0 -70z"/>
<path d="M4977 1323 c-4 -3 -7 -35 -7 -70 l0 -64 93 3 92 3 3 68 3 67 -89 0
c-49 0 -92 -3 -95 -7z"/>
<path d="M2131 846 c-20 -24 3 -57 32 -47 26 10 35 40 15 52 -19 13 -34 11
-47 -5z"/>
<path d="M3480 845 c-17 -20 3 -45 37 -45 28 0 40 24 23 45 -16 19 -44 19 -60
0z"/>
<path d="M3692 833 c2 -13 12 -17 33 -16 51 4 55 -7 55 -153 0 -164 6 -174 99
-174 40 0 61 4 64 13 7 18 -8 41 -21 33 -6 -4 -29 -4 -51 0 l-41 7 0 153 0
154 -71 0 c-62 0 -70 -2 -67 -17z"/>
<path d="M4217 775 c5 -65 4 -75 -11 -75 -9 0 -16 4 -16 10 0 19 -55 39 -90
31 -90 -18 -112 -194 -29 -236 47 -25 82 -19 109 17 l24 32 13 -32 c10 -25 17
-31 29 -24 12 7 15 40 18 180 l4 172 -28 0 -28 0 5 -75z m-37 -75 c24 -13 38
-56 32 -102 -7 -65 -67 -95 -115 -58 -23 18 -27 29 -27 73 0 78 51 119 110 87z"/>
<path d="M1022 663 l3 -168 123 -3 c116 -2 122 -2 122 17 0 19 -8 21 -97 23
l-96 3 2 130 c1 72 -1 138 -4 148 -4 9 -18 17 -31 17 l-24 0 2 -167z"/>
<path d="M2705 818 c-3 -8 -4 -83 -3 -168 l3 -155 97 1 c111 2 142 15 153 64
8 34 -14 77 -43 86 -9 3 -30 11 -45 16 l-29 11 29 12 c66 28 81 74 37 116 -22
21 -37 24 -110 28 -65 2 -85 0 -89 -11z m160 -38 c18 -15 20 -61 3 -78 -14
-14 -97 -16 -118 -2 -8 5 -12 10 -9 10 4 0 3 16 -1 35 -7 29 -5 35 9 36 12 0
12 2 -4 9 -13 5 2 7 43 5 35 -2 69 -9 77 -15z m23 -144 c20 -19 21 -48 4 -78
-16 -28 -59 -38 -117 -28 -30 5 -30 6 -26 60 1 30 5 58 7 61 6 11 118 -2 132
-15z"/>
<path d="M5100 816 c0 -8 12 -21 28 -28 38 -18 41 -55 7 -82 -25 -20 -26 -23
-10 -36 15 -13 20 -11 46 18 37 42 41 103 7 126 -29 20 -78 21 -78 2z"/>
<path d="M1380 725 c0 -10 11 -15 33 -16 17 0 50 -6 72 -13 33 -9 40 -16 40
-36 0 -24 -2 -25 -69 -25 -62 0 -70 -3 -92 -28 -31 -36 -30 -62 1 -92 18 -19
35 -25 68 -25 38 0 67 13 67 30 0 3 -20 4 -44 2 -37 -3 -46 0 -55 17 -20 36 1
57 61 64 58 7 80 -6 71 -43 -3 -11 -2 -31 1 -45 6 -22 12 -25 50 -25 36 0 44
3 42 18 -2 9 -8 18 -14 18 -7 1 -16 2 -22 3 -6 0 -10 34 -10 76 0 68 -2 77
-26 98 -32 28 -55 35 -121 36 -41 1 -53 -2 -53 -14z"/>
<path d="M1700 614 c0 -124 0 -125 23 -122 21 3 22 8 25 92 2 50 7 95 13 102
6 8 5 13 -6 18 -8 3 -15 12 -15 21 0 8 -9 15 -20 15 -19 0 -20 -7 -20 -126z"/>
<path d="M1792 728 c-20 -20 -14 -28 18 -22 51 11 60 -6 60 -112 0 -85 2 -93
21 -99 11 -4 22 -5 24 -3 3 3 9 160 6 191 -2 31 -38 57 -79 57 -21 0 -43 -5
-50 -12z"/>
<path d="M2047 733 c-19 -19 -4 -32 41 -35 l47 -3 -1 -80 -1 -80 -53 -5 c-131
-12 -18 -46 130 -38 51 2 65 7 68 20 3 14 -6 17 -43 20 l-47 3 -2 70 c-2 39
-3 85 -4 103 l-2 32 -63 0 c-35 0 -67 -3 -70 -7z"/>
<path d="M3031 655 c3 -121 6 -134 44 -152 36 -17 68 -13 100 12 19 15 18 15
-19 10 -64 -9 -76 10 -76 122 l0 93 -26 0 -25 0 2 -85z"/>
<path d="M3207 633 c-6 -127 1 -147 52 -139 45 7 51 15 24 33 -21 14 -23 23
-23 114 0 97 0 99 -24 99 -23 0 -23 -3 -29 -107z"/>
<path d="M3390 720 c0 -17 7 -20 50 -20 l51 0 -3 -82 -3 -83 -58 -3 c-49 -3
-58 -6 -55 -20 3 -15 20 -17 126 -19 115 -3 122 -2 122 16 0 16 -8 20 -37 23
l-38 3 -3 103 -3 102 -74 0 c-68 0 -75 -2 -75 -20z"/>
<path d="M4407 720 c-27 -21 -47 -73 -47 -121 0 -15 14 -42 33 -64 l33 -38 84
-1 c69 -1 85 2 85 14 0 11 -17 16 -72 20 -57 4 -77 10 -94 26 -35 35 -17 44
88 44 l96 0 -7 43 c-9 62 -53 97 -122 97 -37 0 -59 -6 -77 -20z m138 -35 c42
-41 33 -51 -47 -58 -39 -3 -75 -4 -80 -1 -31 19 25 84 72 84 19 0 40 -9 55
-25z"/>
<path d="M4690 726 c0 -9 15 -17 40 -21 43 -7 64 -25 30 -25 -21 0 -22 -4 -18
-72 l3 -73 -30 -5 c-16 -3 -31 -12 -33 -20 -2 -13 12 -16 85 -15 48 0 89 3 91
8 7 21 -1 27 -28 22 -16 -3 -30 -2 -31 2 0 5 -2 28 -5 52 -3 24 -1 56 5 72 6
18 6 29 0 29 -5 0 -9 8 -9 18 0 28 -21 42 -62 42 -26 0 -38 -4 -38 -14z"/>
<path d="M4841 722 c-9 -16 -6 -18 18 -14 21 3 33 -3 48 -22 39 -49 73 -20 37
32 -20 29 -88 31 -103 4z"/>
<path d="M5440 733 c-26 -9 -60 -46 -60 -63 0 -26 30 -47 95 -65 67 -19 91
-36 82 -59 -5 -13 -23 -16 -92 -16 -78 0 -85 -2 -85 -20 0 -18 7 -20 75 -20
119 0 155 22 145 90 -3 25 -50 46 -125 59 -28 4 -41 12 -43 25 -6 31 26 46
100 46 54 0 68 3 68 15 0 12 -14 15 -72 14 -40 0 -80 -3 -88 -6z"/>
</g>
</svg>
